<svg xmlns="http://www.w3.org/2000/svg" version="1.1" viewBox="-5.0 -10.0 110.0 110.0">
 <path d="m28.117 12.5c-12.062 0-21.867 9.8086-21.867 21.871v6.25c0 2.6094 1.6328 4.8633 3.9219 5.7969-0.29297 0.45703-0.60156 0.95703-0.89453 1.4883-0.54297 0.98438-1.043 2.0586-1.3047 3.1914-0.25781 1.1367-0.29688 2.5078 0.58594 3.6094 1.0078 1.2578 2.6836 1.7188 4.0039 1.4531 1.1289-0.22266 2.1055-0.76172 3.0625-1.3555v1.6484c-2.6875 0.69922-4.6914 3.1523-4.6914 6.0469 0 1.1367 0.30859 2.2031 0.84375 3.125h-0.84375c-2.5703 0-4.6836 2.1133-4.6836 4.6836v6.2539c0 6.0234 4.9141 10.938 10.934 10.938h65.633c6.0234 0 10.934-4.9141 10.934-10.938v-6.2539c0-2.5703-2.1133-4.6836-4.6836-4.6836h-0.84375c0.53516-0.92188 0.84375-1.9883 0.84375-3.125 0-2.8945-2.0039-5.3477-4.6914-6.0469v-1.6484c0.95703 0.59375 1.9336 1.1328 3.0625 1.3594 1.3242 0.26563 2.9961-0.19531 4.0039-1.4531 0.88281-1.1055 0.84375-2.4766 0.58594-3.6094-0.26172-1.1367-0.76172-2.2109-1.3047-3.1953-0.29297-0.53125-0.59766-1.0352-0.89453-1.4883 2.2891-0.92969 3.9219-3.1836 3.9219-5.7969v-6.25c0-12.062-9.8164-21.871-21.883-21.871zm0 3.125h43.75c10.375 0 18.758 8.3711 18.758 18.746v6.25c0 1.7461-1.3828 3.1289-3.1289 3.1289h-0.25781c-0.039062-0.007812-0.074219-0.011719-0.11328-0.019531h-74.25c-0.039062 0.007812-0.074219 0.011719-0.11328 0.019531h-0.25781c-1.7461 0-3.1289-1.3828-3.1289-3.1289v-6.25c0-10.375 8.3711-18.746 18.742-18.746zm35.852 3.1211h0.003906c-0.38672 0.023437-0.75 0.18359-1.0234 0.45703l-3.1211 3.1172v0.003907c-0.29688 0.29297-0.46094 0.69141-0.46094 1.1055 0 0.41406 0.16406 0.8125 0.46094 1.1055 0.29297 0.29688 0.69141 0.46094 1.1055 0.46094 0.41406 0 0.8125-0.16406 1.1055-0.46094l3.1172-3.1211c0.29688-0.29297 0.46094-0.69141 0.46094-1.1055 0-0.41406-0.16406-0.8125-0.46094-1.1055-0.3125-0.3125-0.74219-0.48047-1.1836-0.45703zm-24.902 0.007812 0.003906 0.003906c-0.41406-0.003906-0.8125 0.15625-1.1094 0.44531l-3.1289 3.125c-0.29297 0.29297-0.46094 0.69531-0.46094 1.1094s0.16797 0.81641 0.46094 1.1094 0.69141 0.45703 1.1094 0.45703c0.41406 0 0.8125-0.16406 1.1055-0.45703l3.1172-3.125c0.29688-0.29297 0.46094-0.69531 0.46094-1.1094s-0.16406-0.81641-0.46094-1.1094c-0.29297-0.28516-0.6875-0.44531-1.0938-0.44531zm-12.582 7.8125c-0.38672 0.019532-0.75391 0.18359-1.0273 0.45703l-3.1289 3.1289c-0.60547 0.60938-0.60547 1.5938 0 2.2031 0.29297 0.29297 0.69531 0.46094 1.1094 0.46094s0.81641-0.16797 1.1094-0.46094l3.125-3.1289c0.60547-0.60937 0.60547-1.5938 0-2.2031-0.31641-0.3125-0.74609-0.48047-1.1875-0.45703zm50 0c-0.38672 0.019532-0.75391 0.18359-1.0273 0.45703l-3.1289 3.1289c-0.60547 0.60938-0.60547 1.5938 0 2.2031 0.29297 0.29297 0.69531 0.46094 1.1094 0.46094s0.81641-0.16797 1.1094-0.46094l3.1289-3.1289h-0.003906c0.60547-0.60937 0.60547-1.5938 0-2.2031-0.3125-0.31641-0.74609-0.48047-1.1875-0.45703zm-24.992 0.007813v-0.003907c-0.38672 0.023438-0.75 0.18359-1.0234 0.45703l-3.1328 3.1289c-0.60547 0.61328-0.60547 1.5977 0 2.207 0.60937 0.60938 1.5977 0.60938 2.2109 0l3.1289-3.1289c0.60547-0.61328 0.60547-1.5977 0-2.207-0.3125-0.3125-0.74219-0.47656-1.1836-0.45703zm12.562 7.8008v-0.003906c-0.41406 0-0.8125 0.16797-1.1016 0.46094l-3.125 3.125c-0.60547 0.60938-0.60547 1.5938 0 2.2031 0.29297 0.29688 0.69141 0.46094 1.1055 0.46094 0.41406 0 0.8125-0.16406 1.1055-0.46094l3.125-3.1133c0.29297-0.29297 0.46094-0.69141 0.46094-1.1055 0-0.41797-0.16797-0.81641-0.46094-1.1094-0.29297-0.29297-0.69141-0.46094-1.1094-0.46094zm-25.074 0.007812h0.003906c-0.38672 0.019532-0.74609 0.17969-1.0195 0.44922l-3.1328 3.1328c-0.60547 0.60938-0.60547 1.5938 0 2.2031 0.29297 0.29297 0.69531 0.46094 1.1094 0.46094 0.41797 0 0.81641-0.16797 1.1094-0.46094l3.1172-3.1172c0.29297-0.29297 0.46094-0.69141 0.46094-1.1094 0-0.41406-0.16797-0.81641-0.46094-1.1094-0.3125-0.30859-0.74219-0.47266-1.1836-0.44922zm-25.289 12.492h72.617c0.31641 0.41406 0.92969 1.1875 1.668 2.5312 0.46094 0.83984 0.85156 1.7383 1.0039 2.3984 0.15234 0.66016 0.039062 0.91797 0.011719 0.95703-0.39063 0.48828-0.40625 0.44531-0.94531 0.33594-0.54297-0.10938-1.4688-0.57812-2.4922-1.2344-0.37891-0.24219-0.77734-0.51953-1.1797-0.80078-0.14062-0.097656-0.27734-0.19141-0.42188-0.28906-0.27734-0.19141-0.56641-0.38281-0.85938-0.57031-0.14453-0.09375-0.29297-0.1875-0.44141-0.27734-0.14844-0.089843-0.30078-0.17969-0.45312-0.26562-0.15234-0.085937-0.30859-0.16797-0.46875-0.25-0.15625-0.082031-0.31641-0.16016-0.47656-0.23047-0.16016-0.074219-0.32422-0.14453-0.49219-0.20703-0.16406-0.066406-0.33203-0.125-0.50391-0.17969-0.16797-0.054688-0.33984-0.10156-0.51172-0.14844-0.17578-0.042969-0.35156-0.082031-0.53125-0.11328-0.089844-0.015625-0.17969-0.027344-0.26953-0.039062-0.046874-0.003907-0.089843-0.011719-0.13672-0.015626-0.046875-0.003906-0.089844-0.007812-0.13672-0.011718-0.089844-0.007813-0.18359-0.015625-0.27344-0.019532-0.046876-0.003906-0.09375-0.003906-0.14063-0.003906-0.046874 0-0.09375-0.003906-0.14062-0.003906-0.078126 0-0.15625 0-0.23438 0.003906-0.078124 0-0.15625 0.003906-0.23047 0.007813-0.078125 0.003906-0.15234 0.007812-0.23047 0.011719-0.078125 0.003906-0.15234 0.007812-0.23047 0.015624-0.15234 0.011719-0.30078 0.027344-0.45312 0.046876-0.14844 0.019531-0.30078 0.039062-0.44922 0.0625-0.14844 0.023437-0.29687 0.046874-0.44141 0.078124-0.14453 0.027344-0.28906 0.058594-0.43359 0.089844-0.14453 0.03125-0.28906 0.066406-0.43359 0.10156-0.14453 0.035156-0.28516 0.070312-0.42578 0.10938-0.28125 0.078125-0.5625 0.16406-0.83594 0.25-0.27734 0.085937-0.54688 0.17578-0.81641 0.27344-0.26953 0.09375-0.53516 0.19141-0.80078 0.28906-0.26562 0.097656-0.52344 0.19141-0.78125 0.28906-2.0625 0.76562-3.9727 1.4727-5.7383 1.5156-2.5781 0.070313-5.3164-0.93359-8.2695-1.8242-0.32812-0.10156-0.66016-0.19922-0.99609-0.29297-0.33203-0.097656-0.67188-0.1875-1.0078-0.27344-0.33984-0.085937-0.68359-0.17188-1.0273-0.24609-0.34375-0.078124-0.69141-0.14844-1.043-0.20703-0.17578-0.03125-0.35156-0.058593-0.52734-0.085937-0.17578-0.027344-0.35156-0.050782-0.53125-0.074219-0.17969-0.023437-0.35938-0.042969-0.53906-0.0625-0.17969-0.015625-0.35938-0.03125-0.53906-0.042969-0.36328-0.023437-0.73047-0.035156-1.0977-0.035156-0.09375 0-0.18359 0-0.27734 0.003906-0.09375 0-0.18359 0.003906-0.27344 0.007813-0.18359 0.007812-0.36328 0.015625-0.54688 0.027343-0.17969 0.011719-0.35938 0.027344-0.53906 0.042969-0.1875 0.015625-0.36719 0.035157-0.54688 0.058594-0.17578 0.023437-0.35156 0.046875-0.53125 0.074219-0.17578 0.027344-0.35156 0.054687-0.52734 0.085937-0.17578 0.027344-0.35156 0.0625-0.52344 0.097657-0.17578 0.035156-0.34766 0.070312-0.51953 0.10937-0.34375 0.074219-0.6875 0.16016-1.0273 0.24609-0.33594 0.085938-0.67578 0.17578-1.0078 0.27344-0.33594 0.09375-0.66797 0.19141-0.99609 0.29297-2.9531 0.89063-5.6914 1.8945-8.2695 1.8242-1.7656-0.042969-3.6758-0.75-5.7422-1.5195-0.050781-0.019531-0.10156-0.035156-0.14844-0.054688-0.21094-0.078124-0.41797-0.15625-0.63281-0.23437-0.26562-0.097657-0.53125-0.19531-0.80078-0.28906s-0.54297-0.18359-0.81641-0.27344c-0.27734-0.085938-0.55469-0.17188-0.83594-0.25-0.14062-0.039063-0.28125-0.074219-0.42578-0.10938-0.14453-0.035156-0.28906-0.070312-0.43359-0.10156s-0.28906-0.0625-0.43359-0.089844c-0.14453-0.027344-0.29297-0.054687-0.44141-0.078125-0.14844-0.023437-0.29688-0.042969-0.44922-0.0625-0.14844-0.019531-0.30078-0.035156-0.45312-0.046875-0.15234-0.011718-0.30469-0.019531-0.45703-0.027344-0.078125-0.003906-0.15234-0.003906-0.23047-0.007812-0.078126 0-0.15625-0.003906-0.23438-0.003906-0.09375 0-0.1875 0.003906-0.28125 0.007812s-0.18359 0.011719-0.27344 0.019532c-0.089844 0.007812-0.18359 0.015624-0.27344 0.027343-0.089844 0.011719-0.17969 0.023438-0.26953 0.039063-0.17969 0.03125-0.35547 0.070312-0.52734 0.11328-0.17578 0.042969-0.34766 0.09375-0.51562 0.14844-0.16797 0.054688-0.33984 0.11719-0.50391 0.17969-0.16406 0.066406-0.33203 0.13281-0.49219 0.20703s-0.32031 0.15234-0.47656 0.23047c-0.16016 0.082031-0.31641 0.16406-0.46875 0.25391-0.15234 0.085938-0.30469 0.17188-0.45312 0.26172-0.15234 0.09375-0.29688 0.1875-0.44531 0.28125-0.29297 0.1875-0.57812 0.37891-0.85547 0.57031-0.14453 0.097656-0.28125 0.19141-0.42188 0.28906-0.40625 0.28125-0.80078 0.55469-1.1797 0.80078-1.0273 0.65234-1.9531 1.125-2.4961 1.2305-0.53906 0.10938-0.55078 0.15625-0.94141-0.33594-0.027343-0.035156-0.14062-0.29297 0.007813-0.95312 0.15234-0.66406 0.54688-1.5625 1.0039-2.3984 0.73828-1.3438 1.3516-2.1172 1.6719-2.5312zm8.1914 4.6875c1.7539 0 3.6406 0.66016 5.6992 1.4297 2.0547 0.76953 4.2773 1.6406 6.7578 1.707 5.9297 0.15234 11.055-3.1328 15.66-3.1328 4.6094 0 9.7305 3.2891 15.66 3.1328 2.4844-0.066407 4.7031-0.9375 6.7578-1.707 2.0547-0.76953 3.9414-1.4297 5.6992-1.4297 0.74609 0 1.8711 0.54297 3.1328 1.2891v3.3984h-62.5v-3.3984c1.2617-0.74609 2.3867-1.2891 3.1328-1.2891zm61.016 7.8125c1.7188 0.042969 3.043 1.3945 3.043 3.125 0 1.7578-1.3672 3.125-3.125 3.125h-10.289l6.2422-6.2422h4.0547-0.003907c0.023438-0.003906 0.050782-0.003906 0.074219-0.007812zm-65.742 0.003906h-0.003906c0.007812 0 0.019531 0 0.027344 0.003906h33.781l7.0312 6.2422h-40.805c-1.7578 0-3.125-1.3672-3.125-3.125 0-1.7461 1.3477-3.1016 3.0898-3.1211zm38.527 0.003906h18.664l-8.7891 8.7891-2.8633-2.5469zm-44.746 9.3711h50.578l3.0781 2.7305h-0.003906c0.61719 0.54688 1.5469 0.51953 2.1328-0.058594l2.6719-2.6719h19.668c0.88281 0 1.5586 0.67578 1.5586 1.5547v6.2539c0 4.3359-3.4766 7.8086-7.8086 7.8086h-65.629c-4.332 0-7.8086-3.4766-7.8086-7.8086v-6.2539c0-0.88281 0.67969-1.5547 1.5586-1.5547z"/>
<text x="0.0" y="117.5" font-size="5.0" font-weight="bold" font-family="Arbeit Regular, Helvetica, Arial-Unicode, Arial, Sans-serif" fill="#000000">by Muhammad Naufal Subhiansyah</text><text x="0.0" y="122.5" font-size="5.0" font-weight="bold" font-family="Arbeit Regular, Helvetica, Arial-Unicode, Arial, Sans-serif" fill="#000000">from Noun Project</text></svg>