<svg xmlns="http://www.w3.org/2000/svg" data-name="Layer 1" viewBox="0 0 110 105" x="0px" y="0px"><path d="M47.5,8.626A38.874,38.874,0,1,0,86.374,47.5,38.918,38.918,0,0,0,47.5,8.626Zm0,73.389A34.515,34.515,0,1,1,82.015,47.5,34.554,34.554,0,0,1,47.5,82.015ZM49.68,75V78.86a2.18,2.18,0,0,1-4.36,0V75a2.18,2.18,0,0,1,4.36,0ZM45.32,20V16.14a2.18,2.18,0,0,1,4.36,0V20a2.18,2.18,0,0,1-4.36,0ZM81.039,47.5a2.18,2.18,0,0,1-2.179,2.18H75a2.18,2.18,0,1,1,0-4.36H78.86A2.18,2.18,0,0,1,81.039,47.5Zm-58.855,0A2.18,2.18,0,0,1,20,49.68H16.14a2.18,2.18,0,0,1,0-4.36H20A2.18,2.18,0,0,1,22.184,47.5Zm1.6-20.633a2.18,2.18,0,1,1,3.083-3.083L29.6,26.516A2.18,2.18,0,0,1,26.516,29.6ZM71.216,68.133a2.18,2.18,0,0,1-3.083,3.083L65.4,68.484A2.18,2.18,0,0,1,68.484,65.4Zm0-44.349a2.181,2.181,0,0,1,0,3.083L68.484,29.6A2.18,2.18,0,0,1,65.4,26.516l2.732-2.732A2.181,2.181,0,0,1,71.216,23.784ZM29.6,65.4a2.181,2.181,0,0,1,0,3.083l-2.732,2.732a2.18,2.18,0,1,1-3.083-3.083L26.516,65.4A2.181,2.181,0,0,1,29.6,65.4ZM58.51,33.407l-8.749,8.749a5.8,5.8,0,0,0-4.522,0L33.155,30.073a2.179,2.179,0,0,0-3.082,3.082L42.156,45.239a5.8,5.8,0,1,0,10.688,0l8.749-8.749a2.18,2.18,0,1,0-3.083-3.083ZM47.5,48.943A1.443,1.443,0,1,1,48.943,47.5,1.444,1.444,0,0,1,47.5,48.943ZM47.5,1A46.5,46.5,0,1,0,94,47.5,46.553,46.553,0,0,0,47.5,1Zm0,88.641A42.141,42.141,0,1,1,89.641,47.5,42.19,42.19,0,0,1,47.5,89.641Z"/><text x="0" y="110" fill="#000000" font-size="5px" font-weight="bold" font-family="'Helvetica Neue', Helvetica, Arial-Unicode, Arial, Sans-serif">Created by Maya Nurhayati</text><text x="0" y="115" fill="#000000" font-size="5px" font-weight="bold" font-family="'Helvetica Neue', Helvetica, Arial-Unicode, Arial, Sans-serif">from the Noun Project</text></svg>