<svg xmlns="http://www.w3.org/2000/svg" version="1.1" viewBox="-2.0 -10.0 100.0 110.0">
 <g>
  <path d="m50 10.176c-21.961 0-39.824 17.867-39.824 39.824 0 21.961 17.867 39.824 39.824 39.824 21.961 0 39.824-17.867 39.824-39.824 0-21.961-17.863-39.824-39.824-39.824zm0 76.523c-20.234 0-36.699-16.465-36.699-36.699s16.465-36.699 36.699-36.699 36.699 16.465 36.699 36.699-16.465 36.699-36.699 36.699z"/>
  <path d="m50 3.125c-25.848 0-46.875 21.027-46.875 46.875s21.027 46.875 46.875 46.875 46.875-21.027 46.875-46.875-21.027-46.875-46.875-46.875zm0 90.625c-24.125 0-43.75-19.625-43.75-43.75s19.625-43.75 43.75-43.75 43.75 19.625 43.75 43.75-19.625 43.75-43.75 43.75z"/>
  <path d="m50 21.344c0.86328 0 1.5625-0.69922 1.5625-1.5625v-1.6406c0-0.86328-0.69922-1.5625-1.5625-1.5625s-1.5625 0.69922-1.5625 1.5625v1.6406c0 0.86328 0.69922 1.5625 1.5625 1.5625z"/>
  <path d="m50 78.656c-0.86328 0-1.5625 0.69922-1.5625 1.5625v1.6406c0 0.86328 0.69922 1.5625 1.5625 1.5625s1.5625-0.69922 1.5625-1.5625v-1.6406c0-0.86328-0.69922-1.5625-1.5625-1.5625z"/>
  <path d="m78.656 50c0 0.86328 0.69922 1.5625 1.5625 1.5625h1.6406c0.86328 0 1.5625-0.69922 1.5625-1.5625s-0.69922-1.5625-1.5625-1.5625h-1.6406c-0.86328 0-1.5625 0.69922-1.5625 1.5625z"/>
  <path d="m21.344 50c0-0.86328-0.69922-1.5625-1.5625-1.5625h-1.6406c-0.86328 0-1.5625 0.69922-1.5625 1.5625s0.69922 1.5625 1.5625 1.5625h1.6406c0.86328 0 1.5625-0.69922 1.5625-1.5625z"/>
  <path d="m66.602 20.984c-0.75391-0.42578-1.7031-0.16406-2.1328 0.58203l-0.8125 1.4219c-0.42969 0.75-0.16797 1.7031 0.58203 2.1328 0.24609 0.14062 0.51172 0.20312 0.77344 0.20312 0.54297 0 1.0703-0.28125 1.3594-0.78906l0.8125-1.4219c0.42969-0.75 0.16797-1.7031-0.58203-2.1328z"/>
  <path d="m35.758 74.875c-0.75391-0.42578-1.7031-0.16406-2.1328 0.58203l-0.8125 1.4219c-0.42969 0.75-0.16797 1.7031 0.58203 2.1328 0.24609 0.14062 0.51172 0.20312 0.77344 0.20312 0.54297 0 1.0703-0.28125 1.3594-0.78906l0.8125-1.4219c0.42969-0.75 0.16797-1.7031-0.58203-2.1328z"/>
  <path d="m78.43 64.473-1.4219-0.8125c-0.75-0.42969-1.707-0.16797-2.1328 0.58203-0.42969 0.75-0.16797 1.7031 0.58203 2.1328l1.4219 0.8125c0.24219 0.14062 0.51172 0.20703 0.77344 0.20703 0.54297 0 1.0703-0.28125 1.3594-0.78906 0.42969-0.75 0.16797-1.7031-0.58203-2.1328z"/>
  <path d="m24.539 33.629-1.4219-0.8125c-0.75-0.42969-1.7031-0.16797-2.1328 0.58203s-0.16797 1.7031 0.58203 2.1328l1.4219 0.8125c0.24219 0.14062 0.51172 0.20703 0.77344 0.20703 0.54297 0 1.0703-0.28125 1.3594-0.78906 0.42969-0.75 0.16797-1.7031-0.58203-2.1328z"/>
  <path d="m33.625 24.539c0.28906 0.50391 0.8125 0.78906 1.3594 0.78906 0.26172 0 0.52734-0.066406 0.77344-0.20312 0.75-0.42969 1.0078-1.3828 0.58203-2.1328l-0.8125-1.4219c-0.42969-0.75-1.3789-1.0078-2.1328-0.58203-0.75 0.42969-1.0078 1.3828-0.58203 2.1328l0.8125 1.4219z"/>
  <path d="m66.375 75.461c-0.42969-0.75-1.3789-1.0078-2.1328-0.58203-0.75 0.42969-1.0078 1.3828-0.58203 2.1328l0.8125 1.4219c0.28906 0.50391 0.8125 0.78906 1.3594 0.78906 0.26172 0 0.52734-0.066406 0.77344-0.20312 0.75-0.42969 1.0078-1.3828 0.58203-2.1328l-0.8125-1.4219z"/>
  <path d="m22.992 63.66-1.4219 0.8125c-0.75 0.42969-1.0078 1.3828-0.58203 2.1328 0.28906 0.50391 0.8125 0.78906 1.3594 0.78906 0.26172 0 0.53125-0.066406 0.77344-0.20703l1.4219-0.8125c0.75-0.42969 1.0078-1.3828 0.58203-2.1328s-1.3828-1.0117-2.1328-0.58203z"/>
  <path d="m74.879 35.758c0.28906 0.50391 0.8125 0.78906 1.3594 0.78906 0.26172 0 0.53125-0.066406 0.77344-0.20703l1.4219-0.8125c0.75-0.42969 1.0078-1.3828 0.58203-2.1328-0.42969-0.75-1.3828-1.0078-2.1328-0.58203l-1.4219 0.8125c-0.75 0.42969-1.0078 1.3828-0.58203 2.1328z"/>
  <path d="m66.227 43.031c0.75781-0.41016 1.043-1.3594 0.63281-2.1172-0.41016-0.75781-1.3555-1.043-2.1172-0.63281l-11.367 6.125c-0.88672-0.83203-2.0703-1.3516-3.3789-1.3516-1.2656 0-2.4062 0.49219-3.2812 1.2734l-15.082-8.6328c-0.75-0.42969-1.7031-0.16797-2.1328 0.57813-0.42969 0.75-0.16797 1.7031 0.57812 2.1328l15.066 8.625c-0.0625 0.31641-0.097656 0.64062-0.097656 0.97266 0 2.7266 2.2188 4.9492 4.9492 4.9492 2.7266 0 4.9492-2.2188 4.9492-4.9492 0-0.28906-0.039062-0.57031-0.085937-0.84375l11.363-6.1211zm-16.227 8.793c-1.0078 0-1.8242-0.81641-1.8242-1.8242s0.81641-1.8242 1.8242-1.8242 1.8242 0.81641 1.8242 1.8242-0.81641 1.8242-1.8242 1.8242z"/>
 </g>
<text x="0.0" y="117.5" font-size="5.0" font-weight="bold" font-family="Arbeit Regular, Helvetica, Arial-Unicode, Arial, Sans-serif" fill="#000000">Created by Soekahurip</text><text x="0.0" y="122.5" font-size="5.0" font-weight="bold" font-family="Arbeit Regular, Helvetica, Arial-Unicode, Arial, Sans-serif" fill="#000000">from Noun Project</text></svg>