<svg xmlns="http://www.w3.org/2000/svg" version="1.1" viewBox="-2.0 -10.0 100.0 110.0">
 <path d="m50.934 68.633c-1.2695 0-2.2969-1.0273-2.2969-2.2969 0-1.2695 1.0273-2.2969 2.2969-2.2969h35.766c2.1211 0 4.0469-0.86719 5.4453-2.2617 1.3945-1.3945 2.2617-3.3242 2.2617-5.4453v-29.582c0-2.1211-0.86719-4.0469-2.2617-5.4453-1.3945-1.3984-3.3242-2.2617-5.4453-2.2617h-56.488c-2.1211 0-4.0469 0.86719-5.4453 2.2617-1.3984 1.3945-2.2617 3.3203-2.2617 5.4453v8.8633c0 1.2695-1.0273 2.2969-2.2969 2.2969s-2.2969-1.0273-2.2969-2.2969v-8.8633c0-3.3906 1.3789-6.4648 3.6094-8.6914 2.2305-2.2305 5.3047-3.6094 8.6914-3.6094h56.488c3.3906 0 6.4648 1.3789 8.6914 3.6094 2.2305 2.2305 3.6094 5.3047 3.6094 8.6914v29.582c0 3.3906-1.3789 6.4648-3.6094 8.6914-2.2305 2.2305-5.3047 3.6094-8.6914 3.6094zm-37.637 12.32h13.82c2.1211 0 4.0469-0.86719 5.4453-2.2617 1.3984-1.3945 2.2617-3.3203 2.2617-5.4453v-13.82c0-2.1211-0.86719-4.0469-2.2617-5.4453-1.3945-1.3945-3.3203-2.2617-5.4453-2.2617h-13.82c-2.1211 0-4.0469 0.86719-5.4453 2.2617-1.3945 1.3984-2.2617 3.3242-2.2617 5.4453v13.82c0 2.1211 0.86719 4.0469 2.2617 5.4453 1.3984 1.3984 3.3242 2.2617 5.4453 2.2617zm13.82 4.5938h-13.82c-3.3906 0-6.4648-1.3789-8.6914-3.6094-2.2266-2.2305-3.6094-5.3047-3.6094-8.6914v-13.82c0-3.3906 1.3828-6.4648 3.6094-8.6953 2.2305-2.2266 5.3047-3.6094 8.6914-3.6094h13.82c3.3906 0 6.4648 1.3828 8.6914 3.6094 2.2305 2.2305 3.6094 5.3047 3.6094 8.6953v13.82c0 3.3906-1.3789 6.4648-3.6094 8.6914-2.2305 2.2305-5.3047 3.6094-8.6914 3.6094zm55.137-51.105-14.426 14.426c-0.89844 0.89844-2.3477 0.89844-3.25 0-0.89844-0.89844-0.89844-2.3516 0-3.25l14.426-14.422h-12.629c-1.2695 0-2.2969-1.0273-2.2969-2.2969 0-1.2695 1.0273-2.2969 2.2969-2.2969h18.176c1.2695 0 2.2969 1.0273 2.2969 2.2969v18.176c0 1.2695-1.0273 2.2969-2.2969 2.2969s-2.2969-1.0273-2.2969-2.2969z"/>
<text x="0.0" y="117.5" font-size="5.0" font-weight="bold" font-family="Arbeit Regular, Helvetica, Arial-Unicode, Arial, Sans-serif" fill="#000000">Created by PEBIAN</text><text x="0.0" y="122.5" font-size="5.0" font-weight="bold" font-family="Arbeit Regular, Helvetica, Arial-Unicode, Arial, Sans-serif" fill="#000000">from Noun Project</text></svg>