<svg xmlns="http://www.w3.org/2000/svg" xmlns:xlink="http://www.w3.org/1999/xlink" version="1.1" x="0px" y="0px" viewBox="0 0 98 100" style="enable-background:new 0 0 98 98;" xml:space="preserve"><style type="text/css">
	.st0{fill-rule:evenodd;clip-rule:evenodd;}
</style><path d="M93.287,60.186c-0.931-1.613-2.44-2.768-4.249-3.253c-1.809-0.485-3.694-0.239-5.307,0.692l-16.8,9.7  c0.083-0.91,0.01-1.849-0.239-2.782c-1.138-4.247-5.52-6.776-9.766-5.638l-6.764,1.812c-2.641,0.708-5.077,0.387-7.445-0.98  l-9.017-5.206c-3.517-2.03-7.089-0.689-11.225,0.863c-2.437,0.915-5.167,1.937-8.407,2.533l-0.234-0.871c0,0,0,0,0,0  c-0.369-1.377-1.789-2.197-3.167-1.829L5.694,56.56c-0.666,0.178-1.223,0.607-1.569,1.206c-0.346,0.599-0.438,1.296-0.26,1.962  l8.914,33.268c0.309,1.154,1.357,1.917,2.499,1.917c0.221,0,0.445-0.028,0.668-0.088l4.974-1.333  c0.666-0.178,1.223-0.606,1.569-1.205c0.346-0.599,0.438-1.296,0.26-1.962l-0.068-0.253c7.507-1.717,12.146-0.397,18.433,1.396  c1.117,0.319,2.272,0.648,3.506,0.978c1.046,0.28,2.077,0.42,3.092,0.42c1.969,0,3.875-0.527,5.693-1.577l37.321-21.548  C94.067,67.814,95.216,63.527,93.287,60.186z M15.359,92.186L6.504,59.139l4.752-1.273l8.855,33.047L15.359,92.186z M89.377,67.403  L52.056,88.951c-2.143,1.237-4.346,1.527-6.736,0.887c-1.213-0.325-2.357-0.651-3.464-0.967c-6.46-1.842-11.632-3.314-19.873-1.409  L14.77,60.545c3.37-0.639,6.159-1.685,8.654-2.622c3.782-1.42,6.514-2.445,8.926-1.053l9.017,5.206  c2.978,1.72,6.173,2.14,9.494,1.25l6.764-1.812c2.808-0.753,5.705,0.92,6.458,3.728c0.752,2.809-0.92,5.706-3.728,6.458l-9.891,2.65  c-1.724,0.462-3.409,0.477-5.007,0.046c-0.721-0.195-1.461,0.232-1.656,0.952c-0.194,0.72,0.232,1.461,0.952,1.656  c1.005,0.271,2.032,0.407,3.074,0.407c1.098,0,2.213-0.151,3.336-0.452l9.891-2.65c1.823-0.488,3.327-1.575,4.363-2.991  l19.665-11.354c0.988-0.57,2.145-0.72,3.258-0.422c1.112,0.298,2.039,1.006,2.609,1.994C92.132,63.588,91.427,66.219,89.377,67.403z   M26.417,36.319h1.748v8.246c0,1.035,0.668,1.923,1.663,2.211c0.203,0.059,0.409,0.087,0.613,0.087c0.697,0,1.379-0.331,1.874-0.936  l7.863-9.608h5.216v2.864c0,2.18,1.773,3.953,3.953,3.953h24.747l7.863,9.608c0.495,0.604,1.176,0.936,1.874,0.936  c0.205,0,0.411-0.028,0.613-0.087c0.994-0.287,1.663-1.176,1.663-2.211v-8.246h1.748c2.18,0,3.953-1.773,3.953-3.953V13.858  c0-2.18-1.773-3.953-3.953-3.953H68.878V7.041c0-2.18-1.773-3.953-3.953-3.953H26.417c-2.18,0-3.953,1.773-3.953,3.953v25.325  C22.463,34.546,24.237,36.319,26.417,36.319z M87.854,12.605c0.691,0,1.253,0.562,1.253,1.253v25.325  c0,0.691-0.562,1.252-1.253,1.252h-3.098c-0.746,0-1.35,0.604-1.35,1.35v8.464l-7.627-9.319c-0.256-0.313-0.64-0.495-1.045-0.495  H49.347c-0.691,0-1.252-0.562-1.252-1.252v-2.864h16.83c1.042,0,1.99-0.406,2.697-1.067h15.527c0.746,0,1.35-0.604,1.35-1.35  c0-0.746-0.605-1.35-1.35-1.35H68.873c0.003-0.062,0.005-0.123,0.005-0.185V27.87h14.271c0.746,0,1.35-0.604,1.35-1.35  s-0.605-1.35-1.35-1.35H68.878v-4.681h14.271c0.746,0,1.35-0.604,1.35-1.35s-0.605-1.35-1.35-1.35H68.878v-5.183H87.854z   M25.164,7.041c0-0.691,0.562-1.253,1.253-1.253h38.508c0.691,0,1.252,0.562,1.252,1.253v25.325c0,0.691-0.562,1.252-1.252,1.252  H39.537c-0.405,0-0.789,0.182-1.045,0.495l-7.627,9.32v-8.464c0-0.746-0.605-1.35-1.35-1.35h-3.099  c-0.691,0-1.253-0.562-1.253-1.252V7.041z M29.772,12.321c0-0.746,0.605-1.35,1.35-1.35h29.096c0.746,0,1.35,0.604,1.35,1.35  c0,0.746-0.605,1.35-1.35,1.35H31.123C30.377,13.672,29.772,13.067,29.772,12.321z M29.772,19.703c0-0.746,0.605-1.35,1.35-1.35  h29.096c0.746,0,1.35,0.604,1.35,1.35c0,0.746-0.605,1.35-1.35,1.35H31.123C30.377,21.054,29.772,20.449,29.772,19.703z   M29.772,27.085c0-0.746,0.605-1.35,1.35-1.35h29.096c0.746,0,1.35,0.604,1.35,1.35c0,0.746-0.605,1.35-1.35,1.35H31.123  C30.377,28.436,29.772,27.831,29.772,27.085z"/><text x="0" y="113" fill="#000000" font-size="5px" font-weight="bold" font-family="'Helvetica Neue', Helvetica, Arial-Unicode, Arial, Sans-serif">Created by SITI NURHAYATI</text><text x="0" y="118" fill="#000000" font-size="5px" font-weight="bold" font-family="'Helvetica Neue', Helvetica, Arial-Unicode, Arial, Sans-serif">from the Noun Project</text></svg>