<svg xmlns="http://www.w3.org/2000/svg" version="1.1" viewBox="-5.0 -10.0 100.0 110.0">
 <path d="m49.996 24.359 24.812 14.324v36.035c-0.015625 0.66406-0.55078 1.1992-1.2148 1.2188h-11.938v0.003906-20.133c-0.019531-2.8164-2.3047-5.0742-5.1211-5.0859h-13.074c-2.8125 0.011719-5.0977 2.2695-5.1211 5.0859v20.133h-11.934c-0.66797-0.023437-1.1992-0.55859-1.2148-1.2227l-0.003906-36.039zm0.015625-4.1992v0.003906h-0.007813-0.003906c-0.40234 0-0.75781 0.14453-1.0898 0.33594l-31.09 17.945c-0.93359 0.53906-1.25 1.7266-0.71484 2.6562 0.36328 0.625 1.0156 0.97266 1.6875 0.97266 0.32812 0 0.66406-0.082031 0.96875-0.25781l1.5391-0.89062v33.816c0.019531 2.8164 2.3047 5.0859 5.1211 5.0859 13.855 0.011719 13.863 0.003906 13.863 0.003906 1.0742 0 1.9453-0.87109 1.9453-1.9453v-22.059c0.015625-0.66016 0.55078-1.1953 1.2148-1.2188h13.105c0.66406 0.019531 1.1992 0.55859 1.2148 1.2188v22.059c0 1.0391 0.81641 1.8867 1.8438 1.9414l13.965 0.003906c2.8164-0.015625 5.1016-2.2734 5.1211-5.0898v-33.816l1.5391 0.89062c0.30469 0.17578 0.64062 0.25781 0.96875 0.25781 0.67188 0 1.3281-0.34766 1.6875-0.97266 0.53516-0.92969 0.21875-2.1172-0.71094-2.6562l-30.988-17.891c-0.33984-0.20703-0.73438-0.39453-1.1797-0.39453z"/>
<text x="0.0" y="117.5" font-size="5.0" font-weight="bold" font-family="Arbeit Regular, Helvetica, Arial-Unicode, Arial, Sans-serif" fill="#000000">Created by Kasanah</text><text x="0.0" y="122.5" font-size="5.0" font-weight="bold" font-family="Arbeit Regular, Helvetica, Arial-Unicode, Arial, Sans-serif" fill="#000000">from Noun Project</text></svg>