<svg xmlns="http://www.w3.org/2000/svg" viewBox="0 0 100 125" x="0px" y="0px"><title>Creator Icon_45</title><path d="M16.542,59.74219A1.25,1.25,0,0,0,18.78613,60.5l6.78174-8.89258H64.63281a5.70992,5.70992,0,0,0,5.70361-5.70312V14.25293A5.70992,5.70992,0,0,0,64.63281,8.5498H16.51953a5.70992,5.70992,0,0,0-5.70361,5.70313V45.9043a5.70992,5.70992,0,0,0,5.70361,5.70313ZM13.31592,45.9043V14.25293a3.20667,3.20667,0,0,1,3.20361-3.20312H64.63281a3.20667,3.20667,0,0,1,3.20361,3.20313V45.9043a3.20667,3.20667,0,0,1-3.20361,3.20313H24.94922a1.24931,1.24931,0,0,0-.99414.49219L19.042,56.042V50.35742a1.24991,1.24991,0,0,0-1.25-1.25H16.51953A3.20667,3.20667,0,0,1,13.31592,45.9043Z"/><path d="M21.25146,21.30859H59.18506a1.25,1.25,0,0,0,0-2.5H21.25146a1.25,1.25,0,1,0,0,2.5Z"/><path d="M21.25146,29.30078H59.18506a1.25,1.25,0,0,0,0-2.5H21.25146a1.25,1.25,0,1,0,0,2.5Z"/><path d="M21.25146,37.293H47.49512a1.25,1.25,0,0,0,0-2.5H21.25146a1.25,1.25,0,1,0,0,2.5Z"/><path d="M40.88965,72.1709a1.25,1.25,0,0,0,0,2.5H67.1333a1.25,1.25,0,0,0,0-2.5Z"/><path d="M83.48779,39.08789h-8.436a1.25,1.25,0,0,0,0,2.5h8.436a3.19989,3.19989,0,0,1,3.19629,3.19629V76.38477a3.19989,3.19989,0,0,1-3.19629,3.19629H82.21729a1.24991,1.24991,0,0,0-1.25,1.25V86.5l-4.90186-6.42676a1.25,1.25,0,0,0-.99414-.49219H35.45068a3.19989,3.19989,0,0,1-3.19629-3.19629V56.56055a1.25,1.25,0,1,0-2.5,0V76.38477a5.70284,5.70284,0,0,0,5.69629,5.69629h39.002l6.77051,8.877a1.24991,1.24991,0,0,0,2.24414-.75781V82.08105h.02051a5.70284,5.70284,0,0,0,5.69629-5.69629V44.78418A5.70284,5.70284,0,0,0,83.48779,39.08789Z"/><path d="M78.76318,57.30957H40.88965a1.25,1.25,0,0,0,0,2.5H78.76318a1.25,1.25,0,1,0,0-2.5Z"/><path d="M80.01318,65.99023a1.24991,1.24991,0,0,0-1.25-1.25H40.88965a1.25,1.25,0,0,0,0,2.5H78.76318A1.24991,1.24991,0,0,0,80.01318,65.99023Z"/><text x="0" y="115" fill="#000000" font-size="5px" font-weight="bold" font-family="'Helvetica Neue', Helvetica, Arial-Unicode, Arial, Sans-serif">Created by Creative Art</text><text x="0" y="120" fill="#000000" font-size="5px" font-weight="bold" font-family="'Helvetica Neue', Helvetica, Arial-Unicode, Arial, Sans-serif">from the Noun Project</text></svg>