<svg xmlns="http://www.w3.org/2000/svg" version="1.1" viewBox="-5.0 -10.0 110.0 122.0">
 <path d="m71.129 7.6055c0-1.8555-1.5039-3.3594-3.3555-3.3594h-3.3516v7.0586h3.3516c1.8516 0 3.3555-1.5 3.3594-3.3516zm-44.812-1.1562h35.445v-2.2031h-35.445zm35.445 2.6562h-35.445v2.1992h35.445zm-43.07-1.3281 4.9609 2.6523 0.003906-5.3008zm1.1211 3.6016-4.543-2.4297c-0.23438-0.125-0.42969-0.31641-0.55469-0.55078-0.34375-0.64453-0.097656-1.4453 0.54297-1.7891l9-4.8047 0.011719-0.003907 0.011719-0.007812h0.011719l0.015625-0.011719 0.023437-0.007812h0.011719l0.011719-0.003907h0.011719l0.011718-0.007812 0.019532-0.011719 0.011718-0.003906h0.015625v-0.003906h0.035157l0.011718-0.007813 0.011719-0.003906h0.011719l0.007812-0.046875h0.011719l0.011719-0.003906h0.011718l0.011719-0.003907h0.023438l0.015625-0.007812h0.011718l0.011719-0.003907h0.011719l0.03125-0.003906h0.027344l0.007812-0.003906h0.03125l0.027344-0.003906c0.019531 0 0.039062 0 0.058594-0.011719h0.011718l-0.007812-0.007813c0.007812 0.003907 0.019531 0 0.027344-0.003906h42.934c2.8086 0.003906 5.2422 1.9492 5.8672 4.6875h14.77c0.35156 0 0.69141 0.14062 0.94141 0.38672 0.25 0.25 0.39063 0.58984 0.38672 0.94141v72.012c0.003907 0.35547-0.13672 0.69141-0.38672 0.94141s-0.58984 0.39062-0.94141 0.39062h-8.6602v8.3359c0 0.73438-0.59375 1.3281-1.3281 1.3281h-28.727l5.0703 5.4609c0.39844 0.375 0.52734 0.95312 0.32812 1.4609-0.20312 0.50781-0.69141 0.83984-1.2383 0.83984h-42.266c-0.73438-0.003906-1.3281-0.59766-1.3281-1.332v-45.543h0.003906c-0.003906-0.36719 0.14844-0.71875 0.42188-0.96875 0.25781-0.23828 0.59766-0.36719 0.94922-0.35547 0.35156 0.015625 0.68359 0.16797 0.92188 0.42578l5.5625 5.9922v-39.363c0-0.73438 0.59766-1.3281 1.332-1.3281h8.6602l-0.003906-1.9766h-3.125c-0.25781 0-0.51172-0.074219-0.72656-0.21484zm43.273 2.5898h-32.316v1.9766l33.434-0.003906h0.039063c0.019531-0.003906 0.039062 0 0.058593 0.003906h0.007813l0.027344 0.007813h0.035156l0.027344 0.003906h0.042968l0.027344 0.011719c0.011719 0 0.019531 0.003906 0.03125 0.003906l0.054688 0.023438h0.003906l0.019531 0.011718h0.027344v0.003907h0.011719l0.015624 0.011719h0.011719l0.019531 0.007812 0.011719 0.003906 0.015625 0.011719 0.015625 0.003906h0.015625l0.011719 0.011719 0.015625 0.003906 0.011719 0.007813 0.015625 0.003906h0.011718l0.003907 0.011719 0.023437 0.011718 0.019532 0.011719h0.011718l0.011719 0.003907 0.011719 0.011718h0.003906l0.023438 0.023438 0.042968 0.027344 0.011719 0.011718c0.011719 0.011719 0.027344 0.023438 0.039063 0.03125l0.011718 0.011719-0.003906-0.007813c0.03125 0.023438 0.058594 0.050782 0.085938 0.082032l14.105 12.645c0.33984 0.25 0.53906 0.64453 0.53906 1.0664v48.309h7.332v-69.395h-13.371c-0.48438 2.8984-2.9922 5.0273-5.9336 5.0312h-4.6719zm-43.043 74.664h14.438l-14.438-15.559zm17.48 2.6602-18.809-0.003907c-0.73438 0-1.3281-0.59375-1.3281-1.3281v-20.27h0.003906c-0.003906-0.36719 0.14844-0.71875 0.42188-0.96875 0.25781-0.24219 0.59766-0.36719 0.94922-0.35547 0.35156 0.015624 0.68359 0.16797 0.92188 0.42578l18.75 20.195c0.39844 0.375 0.52734 0.95312 0.32422 1.4609-0.19922 0.50391-0.6875 0.83984-1.2344 0.83984zm-24.605 0.69531h0.94922v-0.003906c0.35937-0.011719 0.70312 0.125 0.96094 0.375s0.40234 0.59375 0.40234 0.95312c0 0.35547-0.14453 0.69922-0.40234 0.94922s-0.60156 0.38672-0.96094 0.375h-0.94922v1.1172h37.895l-5.0703-5.4688 0.003906 0.003906c-0.042969-0.039062-0.085938-0.082031-0.12109-0.12891l-27.09-29.184c-0.042968-0.042968-0.082031-0.085937-0.11719-0.12891l-5.5-5.9258v5.6055h0.94922c0.73437 0 1.3281 0.59375 1.3281 1.3281s-0.59375 1.3281-1.3281 1.3281h-0.94922v2.5859h0.94922c0.35937-0.011719 0.70703 0.125 0.96484 0.375 0.25781 0.25 0.40234 0.59375 0.40234 0.95312s-0.14453 0.70312-0.40234 0.95312c-0.25781 0.25-0.60547 0.38672-0.96484 0.375h-0.94922v2.582h0.94922c0.73437 0 1.3281 0.59766 1.3281 1.332s-0.59375 1.3281-1.3281 1.3281h-0.94922v2.582h0.94922c0.35937-0.007812 0.70703 0.12891 0.96484 0.37891 0.25781 0.25 0.40234 0.59375 0.40234 0.95312s-0.14453 0.70312-0.40234 0.95312c-0.25781 0.25-0.60547 0.38281-0.96484 0.375h-0.94922v2.582h0.94922c0.73437 0 1.3281 0.59375 1.3281 1.3281 0 0.73438-0.59375 1.332-1.3281 1.332h-0.94922v2.5859h0.94922c0.35937-0.011719 0.70703 0.125 0.96484 0.375 0.25781 0.25 0.40234 0.59375 0.40234 0.95312s-0.14453 0.70312-0.40234 0.95312c-0.25781 0.25-0.60547 0.38672-0.96484 0.375h-0.94922zm34.309-3.9883 29.867-0.003906v-56.594h-12.961c-0.35156 0-0.6875-0.14062-0.9375-0.39062s-0.39062-0.58594-0.39062-0.94141v-11.473h-42.023v40.895zm-2.9531-37.027c-0.73438 0-1.3281-0.59375-1.3281-1.3242 0-0.73438 0.59375-1.3281 1.3281-1.3281h9.332-0.003907c0.73438 0 1.3281 0.59375 1.3281 1.3281 0 0.73047-0.59375 1.3242-1.3281 1.3242h-0.94922l0.003906 11.141c0.054688-0.11328 0.11719-0.22656 0.18359-0.33203 0.37891-0.60156 0.91406-1.082 1.5547-1.3906 2.1016-1.0273 3.8789-2.625 5.1211-4.6094 2.3945-3.8438 2.5156-8.6836 0.32031-12.641-2.1992-3.957-6.3711-6.4141-10.898-6.4141s-8.6992 2.457-10.895 6.4141c-2.1992 3.957-2.0781 8.7969 0.31641 12.641 1.2422 1.9805 3.0117 3.5781 5.1133 4.6094 0.64062 0.30859 1.1836 0.78906 1.5625 1.3906 0.0625 0.10547 0.125 0.22266 0.18359 0.33203v-11.141zm5.7266 11.441v-11.441h-2.125v11.441zm2.2734 2.6602h-6.6719v1.3789h6.6719zm-0.042969 4.0352h-6.5859c0.19141 1.2383 1.0664 2.2656 2.2617 2.6523 1.1914 0.39062 2.5039 0.074219 3.3867-0.8125 0.49609-0.5 0.82422-1.1445 0.9375-1.8359zm-3.293-35.051c4.5898 0 8.9336 2.0898 11.801 5.6758 2.8711 3.5859 3.9531 8.2812 2.9453 12.762-1.0078 4.4805-3.9961 8.2617-8.1211 10.277-0.19141 0.089843-0.35547 0.23047-0.46875 0.41016-0.10938 0.17969-0.16406 0.38672-0.16016 0.59375v4.8086c-0.12891 3.2188-2.7734 5.7617-5.9961 5.7617s-5.8672-2.543-5.9961-5.7617v-4.8047c0.011719-0.42969-0.23438-0.82812-0.63281-1.0039-4.1289-2.0156-7.1172-5.793-8.125-10.277-1.0078-4.4805 0.074218-9.1758 2.9414-12.766 2.8711-3.5859 7.2148-5.6758 11.809-5.6758zm26.02-5.3164-9.4922-8.5078v8.5078z"/>
<text x="0.0" y="117.5" font-size="5.0" font-weight="bold" font-family="Arbeit Regular, Helvetica, Arial-Unicode, Arial, Sans-serif" fill="#000000">Created by Adinda Diah Pramesti</text><text x="0.0" y="122.5" font-size="5.0" font-weight="bold" font-family="Arbeit Regular, Helvetica, Arial-Unicode, Arial, Sans-serif" fill="#000000">from Noun Project</text></svg>