<svg xmlns="http://www.w3.org/2000/svg" version="1.1" viewBox="-5.0 -10.0 100.0 110.0">
 <g>
  <path d="m63.371 93.512h-10.758c-6.6914 0.007812-13.137-2.5117-18.047-7.0547-0.28906-0.26562-0.45312-0.63672-0.45312-1.0273v-28.973c0-0.77344 0.62891-1.3984 1.4023-1.3984s1.3984 0.625 1.3984 1.3984v28.344c4.3398 3.8125 9.9219 5.9141 15.699 5.9102h10.758c0.77344 0 1.3984 0.625 1.3984 1.3984s-0.625 1.3984-1.3984 1.3984z"/>
  <path d="m68.941 66.77h-10.027c-0.77344 0-1.3984-0.625-1.3984-1.3984 0-0.77344 0.625-1.3984 1.3984-1.3984h10.027c1.6875 0 3.0586-1.3711 3.0586-3.0586s-1.3711-3.0586-3.0586-3.0586h-5.5703c-0.77344 0-1.3984-0.625-1.3984-1.3984 0-0.77344 0.625-1.3984 1.3984-1.3984h5.5703c3.2344 0 5.8594 2.6211 5.8594 5.8555 0 3.2344-2.625 5.8555-5.8594 5.8555z"/>
  <path d="m68.941 75.684h-10.027c-0.77344 0-1.3984-0.625-1.3984-1.3984 0-0.77344 0.625-1.3984 1.3984-1.3984h10.027c1.6875 0 3.0586-1.3711 3.0586-3.0586s-1.3711-3.0586-3.0586-3.0586h-10.027c-0.77344 0-1.3984-0.625-1.3984-1.3984 0-0.77344 0.625-1.3984 1.3984-1.3984h10.027c3.2344 0 5.8594 2.6211 5.8594 5.8555s-2.625 5.8555-5.8594 5.8555z"/>
  <path d="m68.941 84.602h-10.027c-0.77344 0-1.3984-0.62891-1.3984-1.4023 0-0.77344 0.625-1.3984 1.3984-1.3984h10.027c1.6875 0 3.0586-1.3711 3.0586-3.0586s-1.3711-3.0547-3.0586-3.0547h-10.027c-0.77344 0-1.3984-0.62891-1.3984-1.4023 0-0.77344 0.625-1.3984 1.3984-1.3984h10.027c3.2344 0 5.8594 2.6211 5.8594 5.8555 0 3.2344-2.625 5.8594-5.8594 5.8594z"/>
  <path d="m68.941 93.512h-5.5703c-0.77344 0-1.3984-0.625-1.3984-1.3984 0-0.77344 0.625-1.3984 1.3984-1.3984h5.5703c1.6875 0 3.0586-1.3711 3.0586-3.0586s-1.3711-3.0586-3.0586-3.0586h-10.027c-0.77344 0-1.3984-0.625-1.3984-1.3984 0-0.77344 0.625-1.3984 1.3984-1.3984h10.027c3.2344 0 5.8594 2.6211 5.8594 5.8555s-2.625 5.8555-5.8594 5.8555z"/>
  <path d="m35.516 57.855c-0.70703 0-1.3008-0.52734-1.3867-1.2266-0.085937-0.69922 0.36328-1.3555 1.0469-1.5273l3.0664-0.76562v-0.003907c2.8164-0.69922 4.793-3.2305 4.7852-6.1328v-8.0898c-0.003906-1.5938 1.1562-2.9531 2.7305-3.1914l0.10938-0.015625c2.7891-0.41406 5.6172 0.41016 7.75 2.2539 2.1328 1.8438 3.3594 4.5234 3.3555 7.3438v8.5625h6.3984c0.77344 0 1.3984 0.625 1.3984 1.3984 0 0.77344-0.625 1.4023-1.3984 1.4023h-7.8008c-0.77344 0-1.3984-0.62891-1.3984-1.4023v-9.9609c0.003906-2.0039-0.86719-3.9062-2.3828-5.2188-1.5156-1.3125-3.5234-1.8984-5.5078-1.6055l-0.089844 0.015625v-0.003906c-0.20703 0.03125-0.36328 0.21484-0.36328 0.42578v8.0859c0.003906 4.1875-2.8438 7.8359-6.9062 8.8477l-3.0664 0.76562c-0.11328 0.027344-0.22656 0.042969-0.33984 0.042969z"/>
  <path d="m33.969 93.898h-14.055c-1.625 0-2.9453-1.3164-2.9453-2.9453v-34.48c0-1.625 1.3203-2.9453 2.9453-2.9453h14.055c1.6289 0 2.9453 1.3203 2.9453 2.9453v34.48c0 1.6289-1.3164 2.9453-2.9453 2.9453zm-14.055-37.57c-0.082031 0-0.14453 0.0625-0.14453 0.14453v34.48c0 0.082031 0.0625 0.14844 0.14453 0.14844h14.055c0.082031 0 0.14453-0.066406 0.14453-0.14844v-34.48c0-0.082031-0.0625-0.14453-0.14453-0.14453z"/>
  <path d="m26.941 88.578c-1.8789 0-3.5742-1.1328-4.2969-2.8711-0.71875-1.7383-0.32031-3.7383 1.0078-5.0664 1.332-1.332 3.332-1.7305 5.0703-1.0078 1.7383 0.71875 2.8711 2.4141 2.8711 4.293-0.003906 2.5664-2.0859 4.6484-4.6523 4.6523zm0-6.5c-0.74609 0-1.4219 0.44922-1.707 1.1406-0.28906 0.69141-0.12891 1.4883 0.39844 2.0156 0.53125 0.53125 1.3242 0.6875 2.0156 0.40234 0.69141-0.28516 1.1445-0.96094 1.1445-1.7109-0.003907-1.0195-0.82812-1.8477-1.8516-1.8477z"/>
  <path d="m58.535 35.176c-0.22656 0-0.44922-0.054687-0.64844-0.16016l-7.8867-4.1484-7.8867 4.1445v0.003906c-0.47266 0.24609-1.043 0.20312-1.4727-0.10938-0.43359-0.3125-0.64844-0.84375-0.55859-1.3672l1.5078-8.7812-6.3789-6.2188c-0.38281-0.37109-0.51953-0.92969-0.35547-1.4336 0.16406-0.50781 0.60156-0.87891 1.1289-0.95312l8.8164-1.2812 3.9414-7.9883v-0.003906c0.23828-0.47656 0.72266-0.77734 1.2539-0.77734 0.53516 0 1.0195 0.30078 1.2578 0.77734l3.9453 7.9922 8.8164 1.2812c0.52734 0.074218 0.96875 0.44531 1.1328 0.95312 0.16406 0.50391 0.027343 1.0625-0.35547 1.4336l-6.3789 6.2188 1.5078 8.7812h-0.003906c0.070312 0.40625-0.042969 0.82422-0.30859 1.1367-0.26562 0.31641-0.65625 0.5-1.0703 0.5zm-8.5352-7.2891c0.22656 0 0.44922 0.054687 0.65234 0.16016l6.0273 3.168-1.1523-6.7109c-0.078125-0.45312 0.070312-0.91406 0.39844-1.2383l4.875-4.7539-6.7383-0.98047 0.003906 0.003906c-0.45703-0.066406-0.85156-0.35156-1.0547-0.76562l-3.0117-6.1055-3.0117 6.1055c-0.20703 0.41406-0.59766 0.69922-1.0547 0.76562l-6.7344 0.98047 4.875 4.7539v-0.003906c0.33203 0.32422 0.48047 0.78516 0.40234 1.2383l-1.1523 6.7109 6.0273-3.168c0.19922-0.10547 0.42188-0.16016 0.64844-0.16016z"/>
  <path d="m87.223 48.312c-0.22656 0-0.44922-0.054688-0.65234-0.16016l-7.8867-4.1445-7.8828 4.1445c-0.47266 0.24609-1.043 0.20703-1.4766-0.10547-0.42969-0.31641-0.64453-0.84375-0.55469-1.3711l1.5039-8.7773-6.375-6.2227c-0.37891-0.37109-0.51563-0.92969-0.35156-1.4336 0.16406-0.50781 0.60156-0.87891 1.1289-0.95313l8.8164-1.2812 3.9414-7.9883c0.23828-0.48047 0.72266-0.78125 1.2578-0.78125 0.53125 0 1.0195 0.30078 1.2539 0.78125l3.9414 7.9883 8.8125 1.2812c0.52734 0.074219 0.96484 0.44531 1.1328 0.95313 0.16406 0.50391 0.027344 1.0625-0.35547 1.4336l-6.375 6.2227 1.5 8.7773c0.066407 0.40625-0.046874 0.82422-0.3125 1.1406-0.26562 0.3125-0.65625 0.49609-1.0703 0.49609zm-19.34-16.66 4.875 4.7461c0.32813 0.32422 0.47656 0.78906 0.39844 1.2422l-1.1523 6.7109 6.0273-3.168c0.40625-0.21484 0.89453-0.21484 1.3008 0l6.0273 3.168-1.1523-6.7109c-0.078125-0.45312 0.070313-0.91797 0.39844-1.2422l4.875-4.7539-6.7383-0.98047 0.003906 0.003907c-0.45312-0.066407-0.84375-0.35156-1.0469-0.76172l-3.0117-6.1055-3.0156 6.1055c-0.20312 0.41016-0.59766 0.69922-1.0547 0.76562z"/>
  <path d="m12.777 48.312c-0.41406 0-0.80469-0.18359-1.0703-0.5-0.26172-0.31641-0.375-0.73047-0.30859-1.1367l1.5-8.7773-6.375-6.2227c-0.38281-0.37109-0.51953-0.92969-0.35547-1.4336 0.16406-0.50781 0.60547-0.87891 1.1328-0.95313l8.8164-1.2812 3.9414-7.9883c0.23438-0.48047 0.72266-0.78125 1.2578-0.78125 0.53125 0 1.0195 0.30078 1.2539 0.78125l3.9414 7.9883 8.8164 1.2812c0.52734 0.078126 0.96484 0.44531 1.1289 0.95313 0.16406 0.50781 0.023438 1.0625-0.35547 1.4336l-6.375 6.2227 1.5078 8.7812h-0.003906c0.085937 0.52734-0.12891 1.0547-0.55859 1.3672-0.42969 0.30859-1 0.35156-1.4727 0.10547l-7.8867-4.1445-7.8867 4.1445h0.003907c-0.20313 0.10547-0.42578 0.16016-0.65234 0.16016zm8.5352-7.2891c0.22656 0 0.45312 0.054687 0.65234 0.16016l6.0273 3.168-1.1523-6.7109v0.003906c-0.078125-0.45703 0.070312-0.91797 0.39844-1.2422l4.875-4.7539-6.7383-0.98047 0.003906 0.003906c-0.45703-0.066406-0.85156-0.35156-1.0547-0.76562l-3.0117-6.1055-3.0117 6.1055c-0.20312 0.41406-0.59766 0.69922-1.0547 0.76562l-6.7383 0.98047 4.875 4.7461c0.33203 0.32422 0.48047 0.78906 0.40234 1.2422l-1.1523 6.7109 6.0273-3.168c0.19922-0.10547 0.42578-0.16016 0.65234-0.16016z"/>
 </g>
<text x="0.0" y="117.5" font-size="5.0" font-weight="bold" font-family="Arbeit Regular, Helvetica, Arial-Unicode, Arial, Sans-serif" fill="#000000">Created by Qadeer Hussain</text><text x="0.0" y="122.5" font-size="5.0" font-weight="bold" font-family="Arbeit Regular, Helvetica, Arial-Unicode, Arial, Sans-serif" fill="#000000">from Noun Project</text></svg>