<svg xmlns="http://www.w3.org/2000/svg" version="1.1" viewBox="0 0 100 100">
 <g fill-rule="evenodd">
  <path d="m42.188 17.969c-4.9844 1.0156-9.625 2.9805-13.727 5.6953l-1.0625-1.0625c-3.0469-3.0508-8-3.0508-11.047 0-3.0508 3.0469-3.0508 8 0 11.047l1.0625 1.0625c-4.0938 6.1758-6.4766 13.582-6.4766 21.539 0 21.559 17.504 39.062 39.062 39.062s39.062-17.504 39.062-39.062c0-7.957-2.3828-15.363-6.4766-21.539l1.0625-1.0625c3.0508-3.0469 3.0508-8 0-11.047-3.0469-3.0508-8-3.0508-11.047 0l-1.0625 1.0625c-4.1016-2.7148-8.7422-4.6797-13.727-5.6953v-3.9062h1.5625c2.5898 0 4.6875-2.0977 4.6875-4.6875s-2.0977-4.6875-4.6875-4.6875h-18.75c-2.5898 0-4.6875 2.0977-4.6875 4.6875s2.0977 4.6875 4.6875 4.6875h1.5625zm7.8125 2.3438c19.836 0 35.938 16.102 35.938 35.938s-16.102 35.938-35.938 35.938-35.938-16.102-35.938-35.938 16.102-35.938 35.938-35.938zm30.734 11.836 0.70312-0.71094c1.832-1.8281 1.832-4.7969 0-6.625-1.8281-1.832-4.7969-1.832-6.625 0l-0.71094 0.70312c2.4688 1.9375 4.6953 4.1641 6.6328 6.6328zm-54.836-6.6328-0.71094-0.70312c-1.8203-1.8242-4.7734-1.832-6.6055-0.023438l-0.019531 0.023438c-1.832 1.8281-1.832 4.7969 0 6.625l0.70312 0.71094c1.9375-2.4688 4.1641-4.6953 6.6328-6.6328zm19.414-8.0469c1.5352-0.1875 3.1016-0.28125 4.6875-0.28125s3.1523 0.09375 4.6875 0.28125v-3.4062h-9.375zm15.625-8.0938c0-0.86328-0.69922-1.5625-1.5625-1.5625h-18.75c-0.86328 0-1.5625 0.69922-1.5625 1.5625s0.69922 1.5625 1.5625 1.5625h18.75c0.86328 0 1.5625-0.69922 1.5625-1.5625z"/>
  <path d="m48.438 48.594c-3.5625 0.72656-6.25 3.8789-6.25 7.6562 0 4.3125 3.5 7.8125 7.8125 7.8125 3.7773 0 6.9297-2.6875 7.6562-6.25h11.094c0.86328 0 1.5625-0.69922 1.5625-1.5625s-0.69922-1.5625-1.5625-1.5625h-11.094c-0.62109-3.0586-3.0352-5.4727-6.0938-6.0938v-11.094c0-0.86328-0.69922-1.5625-1.5625-1.5625s-1.5625 0.69922-1.5625 1.5625zm1.5625 2.9688c2.5859 0 4.6875 2.1016 4.6875 4.6875s-2.1016 4.6875-4.6875 4.6875-4.6875-2.1016-4.6875-4.6875 2.1016-4.6875 4.6875-4.6875z"/>
  <path d="m50 23.438c-18.109 0-32.812 14.703-32.812 32.812s14.703 32.812 32.812 32.812 32.812-14.703 32.812-32.812-14.703-32.812-32.812-32.812zm1.5625 3.1641c4.2695 0.22266 8.3008 1.3477 11.91 3.1914l-2.3242 4.0273c-0.43359 0.74609-0.17578 1.7031 0.57031 2.1328s1.7031 0.17578 2.1328-0.57031l2.3242-4.0234c3.4766 2.2656 6.4492 5.2383 8.7148 8.7148l-4.0234 2.3242c-0.74609 0.42969-1 1.3867-0.57031 2.1328s1.3867 1.0039 2.1328 0.57031l4.0273-2.3242c1.8438 3.6094 2.9688 7.6406 3.1914 11.91h-4.6484c-0.86328 0-1.5625 0.69922-1.5625 1.5625s0.69922 1.5625 1.5625 1.5625h4.6484c-0.22266 4.2695-1.3477 8.3008-3.1914 11.91l-4.0273-2.3242c-0.74609-0.43359-1.7031-0.17578-2.1328 0.57031s-0.17578 1.7031 0.57031 2.1328l4.0234 2.3242c-2.2656 3.4766-5.2383 6.4492-8.7148 8.7148l-2.3242-4.0234c-0.42969-0.74609-1.3867-1-2.1328-0.57031s-1.0039 1.3867-0.57031 2.1328l2.3242 4.0273c-3.6094 1.8438-7.6406 2.9688-11.91 3.1914v-4.6484c0-0.86328-0.69922-1.5625-1.5625-1.5625s-1.5625 0.69922-1.5625 1.5625v4.6484c-4.2695-0.22266-8.3008-1.3477-11.91-3.1914l2.3242-4.0273c0.43359-0.74609 0.17578-1.7031-0.57031-2.1328s-1.7031-0.17578-2.1328 0.57031l-2.3242 4.0234c-3.4766-2.2656-6.4492-5.2383-8.7148-8.7148l4.0234-2.3242c0.74609-0.42969 1-1.3867 0.57031-2.1328s-1.3867-1.0039-2.1328-0.57031l-4.0273 2.3242c-1.8438-3.6094-2.9688-7.6406-3.1914-11.91h4.6484c0.86328 0 1.5625-0.69922 1.5625-1.5625s-0.69922-1.5625-1.5625-1.5625h-4.6484c0.22266-4.2695 1.3477-8.3008 3.1914-11.91l4.0273 2.3242c0.74609 0.43359 1.7031 0.17578 2.1328-0.57031s0.17578-1.7031-0.57031-2.1328l-4.0234-2.3242c2.2656-3.4766 5.2383-6.4492 8.7148-8.7148l2.3242 4.0234c0.42969 0.74609 1.3867 1 2.1328 0.57031s1.0039-1.3867 0.57031-2.1328l-2.3242-4.0273c3.6094-1.8438 7.6406-2.9688 11.91-3.1914v4.6484c0 0.86328 0.69922 1.5625 1.5625 1.5625s1.5625-0.69922 1.5625-1.5625z"/>
 </g>
<text x="0.0" y="117.5" font-size="5.0" font-weight="bold" font-family="Arbeit Regular, Helvetica, Arial-Unicode, Arial, Sans-serif" fill="#000000">Created by Mada Creative</text><text x="0.0" y="122.5" font-size="5.0" font-weight="bold" font-family="Arbeit Regular, Helvetica, Arial-Unicode, Arial, Sans-serif" fill="#000000">from Noun Project</text></svg>