<svg xmlns="http://www.w3.org/2000/svg" version="1.1" viewBox="-2.0 -10.0 100.0 110.0">
 <g fill-rule="evenodd">
  <path d="m50 17.188c-18.109 0-32.812 14.703-32.812 32.812s14.703 32.812 32.812 32.812 32.812-14.703 32.812-32.812-14.703-32.812-32.812-32.812zm-1.5625 3.1641v4.6484c0 0.86328 0.69922 1.5625 1.5625 1.5625s1.5625-0.69922 1.5625-1.5625v-4.6484c4.2695 0.22266 8.3008 1.3477 11.91 3.1914l-2.3242 4.0273c-0.43359 0.74609-0.17578 1.7031 0.57031 2.1328s1.7031 0.17578 2.1328-0.57031l2.3242-4.0234c3.4766 2.2656 6.4492 5.2383 8.7148 8.7148l-4.0234 2.3242c-0.74609 0.42969-1 1.3867-0.57031 2.1328s1.3867 1.0039 2.1328 0.57031l4.0273-2.3242c1.8438 3.6094 2.9688 7.6406 3.1914 11.91h-4.6484c-0.86328 0-1.5625 0.69922-1.5625 1.5625s0.69922 1.5625 1.5625 1.5625h4.6484c-0.22266 4.2695-1.3477 8.3008-3.1914 11.91l-4.0273-2.3242c-0.74609-0.43359-1.7031-0.17578-2.1328 0.57031s-0.17578 1.7031 0.57031 2.1328l4.0234 2.3242c-2.2656 3.4766-5.2383 6.4492-8.7148 8.7148l-2.3242-4.0234c-0.42969-0.74609-1.3867-1-2.1328-0.57031s-1.0039 1.3867-0.57031 2.1328l2.3242 4.0273c-3.6094 1.8438-7.6406 2.9688-11.91 3.1914v-4.6484c0-0.86328-0.69922-1.5625-1.5625-1.5625s-1.5625 0.69922-1.5625 1.5625v4.6484c-4.2695-0.22266-8.3008-1.3477-11.91-3.1914l2.3242-4.0273c0.43359-0.74609 0.17578-1.7031-0.57031-2.1328s-1.7031-0.17578-2.1328 0.57031l-2.3242 4.0234c-3.4766-2.2656-6.4492-5.2383-8.7148-8.7148l4.0234-2.3242c0.74609-0.42969 1-1.3867 0.57031-2.1328s-1.3867-1.0039-2.1328-0.57031l-4.0273 2.3242c-1.8438-3.6094-2.9688-7.6406-3.1914-11.91h4.6484c0.86328 0 1.5625-0.69922 1.5625-1.5625s-0.69922-1.5625-1.5625-1.5625h-4.6484c0.22266-4.2695 1.3477-8.3008 3.1914-11.91l4.0273 2.3242c0.74609 0.43359 1.7031 0.17578 2.1328-0.57031s0.17578-1.7031-0.57031-2.1328l-4.0234-2.3242c2.2656-3.4766 5.2383-6.4492 8.7148-8.7148l2.3242 4.0234c0.42969 0.74609 1.3867 1 2.1328 0.57031s1.0039-1.3867 0.57031-2.1328l-2.3242-4.0273c3.6094-1.8438 7.6406-2.9688 11.91-3.1914z"/>
  <path d="m32.812 12.926-2.8242-2.8242c-3.0508-3.0508-7.9961-3.0508-11.051 0-2.6953 2.6992-6.1367 6.1406-8.8359 8.8359-3.0508 3.0547-3.0508 8 0 11.051l4.1797 4.1836c-2.1484 4.8359-3.3438 10.195-3.3438 15.828 0 11.137 4.668 21.188 12.156 28.305l-5.3594 10.125c-1.0859 2.0508-0.50781 4.5859 1.3555 5.9648 1.8672 1.3789 4.4609 1.1836 6.0977-0.45703l8.4609-8.457c4.9766 2.3008 10.516 3.582 16.352 3.582s11.375-1.2812 16.352-3.582l8.4609 8.457c1.6367 1.6406 4.2305 1.8359 6.0977 0.45703 1.8633-1.3789 2.4414-3.9141 1.3555-5.9648l-5.3594-10.125c7.4883-7.1172 12.156-17.168 12.156-28.305 0-5.6328-1.1953-10.992-3.3438-15.828l4.1797-4.1836c3.0508-3.0508 3.0508-7.9961 0-11.051-2.6992-2.6953-6.1406-6.1367-8.8359-8.8359-3.0547-3.0508-8-3.0508-11.051 0l-2.8242 2.8242v-0.42578c0-2.0703-0.82422-4.0586-2.2891-5.5234-1.4648-1.4648-3.4531-2.2891-5.5234-2.2891h-18.75c-2.0703 0-4.0586 0.82422-5.5234 2.2891-1.4648 1.4648-2.2891 3.4531-2.2891 5.5234zm-7.3047 67.496-5.0156 9.4727c-0.35938 0.68359-0.16797 1.5273 0.45312 1.9883 0.625 0.45703 1.4883 0.39453 2.0352-0.15234l7.75-7.75c-1.8398-1.0469-3.5859-2.2383-5.2227-3.5586zm48.984 0c-1.6367 1.3203-3.3828 2.5117-5.2227 3.5586l7.75 7.75c0.54688 0.54688 1.4102 0.60938 2.0352 0.15234 0.62109-0.46094 0.8125-1.3047 0.45312-1.9883zm-24.492-66.359c19.836 0 35.938 16.102 35.938 35.938s-16.102 35.938-35.938 35.938-35.938-16.102-35.938-35.938 16.102-35.938 35.938-35.938zm34.25 17.156 3.4375-3.4414c1.832-1.8281 1.832-4.7969 0-6.6289l-8.8359-8.8359c-1.832-1.832-4.7969-1.832-6.6289 0l-3.4375 3.4375c6.5078 3.5781 11.887 8.957 15.465 15.469zm-53.035-15.469-3.4375-3.4375c-1.8281-1.832-4.7969-1.832-6.6289 0l-8.8359 8.8359c-1.832 1.832-1.832 4.8008 0 6.6289l3.4375 3.4375c3.5781-6.5039 8.957-11.887 15.465-15.465zm32.848-2.1992v-1.0508c0-1.2422-0.49219-2.4375-1.375-3.3125-0.875-0.88281-2.0703-1.375-3.3125-1.375h-18.75c-1.2422 0-2.4375 0.49219-3.3125 1.375-0.88281 0.875-1.375 2.0703-1.375 3.3125v1.0508c4.3633-1.6875 9.1055-2.6133 14.062-2.6133s9.6992 0.92578 14.062 2.6133z"/>
  <path d="m48.438 45.578c-1.8203 0.64453-3.125 2.3828-3.125 4.4219 0 2.5859 2.1016 4.6875 4.6875 4.6875 2.0391 0 3.7773-1.3047 4.4219-3.125h14.328c0.86328 0 1.5625-0.69922 1.5625-1.5625s-0.69922-1.5625-1.5625-1.5625h-14.328c-0.47266-1.332-1.5273-2.3867-2.8594-2.8594v-14.328c0-0.86328-0.69922-1.5625-1.5625-1.5625s-1.5625 0.69922-1.5625 1.5625zm1.5625 2.8594c0.86328 0 1.5625 0.69922 1.5625 1.5625s-0.69922 1.5625-1.5625 1.5625-1.5625-0.69922-1.5625-1.5625 0.69922-1.5625 1.5625-1.5625z"/>
 </g>
<text x="0.0" y="117.5" font-size="5.0" font-weight="bold" font-family="Arbeit Regular, Helvetica, Arial-Unicode, Arial, Sans-serif" fill="#000000">Created by Mada Creative</text><text x="0.0" y="122.5" font-size="5.0" font-weight="bold" font-family="Arbeit Regular, Helvetica, Arial-Unicode, Arial, Sans-serif" fill="#000000">from Noun Project</text></svg>