<svg xmlns="http://www.w3.org/2000/svg" xmlns:xlink="http://www.w3.org/1999/xlink" version="1.1" x="0px" y="0px" viewBox="0 0 100 100" enable-background="new 0 0 100 100" xml:space="preserve"><path d="M67.982,42.167H39.814c-1.104,0-2-0.896-2-2s0.896-2,2-2h28.168c1.105,0,2,0.896,2,2S69.088,42.167,67.982,42.167z"/><path d="M67.982,52.167H39.814c-1.104,0-2-0.896-2-2s0.896-2,2-2h28.168c1.105,0,2,0.896,2,2S69.088,52.167,67.982,52.167z"/><g><path d="M32.75,89.334c-8.594,0-15.584-6.99-15.584-15.584c0-8.592,6.99-15.583,15.584-15.583c8.592,0,15.583,6.991,15.583,15.583   C48.333,82.344,41.342,89.334,32.75,89.334z M32.75,61.667c-6.663,0-12.084,5.421-12.084,12.083   c0,6.663,5.421,12.084,12.084,12.084c6.662,0,12.083-5.421,12.083-12.084C44.833,67.088,39.412,61.667,32.75,61.667z"/></g><path stroke="#000000" stroke-width="0.5" stroke-miterlimit="10" d="M81.506,31.809L64.555,12.88  c-0.275-0.335-0.688-0.553-1.156-0.553h-30c-4.135,0-7.5,3.364-7.5,7.5v37.729c0.959-0.406,1.965-0.719,3-0.951V19.827  c0-2.481,2.02-4.5,4.5-4.5h28.5v15.487c0,1.93,1.57,3.5,3.5,3.5h13.5v45.18c0,2.481-2.018,4.5-4.5,4.5H47.012  c-0.794,1.103-1.71,2.109-2.732,3h30.119c4.137,0,7.5-3.364,7.5-7.5v-46.68C81.898,32.426,81.748,32.074,81.506,31.809z   M65.398,31.314c-0.27,0-0.5-0.229-0.5-0.5V17.678l12.168,13.637H65.398z"/><path d="M67.982,59.167h-25.42c1.613,1.089,3.021,2.45,4.195,4h21.225c1.105,0,2-0.896,2-2S69.088,59.167,67.982,59.167z"/><path d="M67.982,71.167H50.121c0.126,0.845,0.212,1.703,0.212,2.583c0,0.479-0.034,0.948-0.071,1.417h17.721c1.105,0,2-0.896,2-2  S69.088,71.167,67.982,71.167z"/><path d="M39.542,76.167h-8.5V66.145c0-0.828,0.671-1.5,1.5-1.5s1.5,0.672,1.5,1.5v7.022h5.5c0.829,0,1.5,0.671,1.5,1.5  S40.371,76.167,39.542,76.167z"/><text x="0" y="115" fill="#000000" font-size="5px" font-weight="bold" font-family="'Helvetica Neue', Helvetica, Arial-Unicode, Arial, Sans-serif">Created by Kaylen Yul Lee</text><text x="0" y="120" fill="#000000" font-size="5px" font-weight="bold" font-family="'Helvetica Neue', Helvetica, Arial-Unicode, Arial, Sans-serif">from the Noun Project</text></svg>